<svg width="11" height="20" viewBox="0 0 11 20" fill="none" xmlns="http://www.w3.org/2000/svg">
<path d="M10.0054 11.256L10.5601 7.63887H7.08859V5.28314C7.06444 5.01301 7.10132 4.74091 7.1965 4.48695C7.29168 4.23299 7.44272 4.00367 7.63846 3.81595C7.8342 3.62823 8.06963 3.4869 8.32735 3.40242C8.58507 3.31794 8.85848 3.29247 9.12736 3.32789H10.7057V0.256885C9.77918 0.107301 8.84296 0.0257038 7.90453 0.0127459C7.25883 -0.0364188 6.61022 0.0570303 6.00466 0.286471C5.3991 0.515912 4.85141 0.875728 4.40041 1.34042C3.9494 1.80512 3.60612 2.36332 3.39489 2.97547C3.18366 3.58762 3.10964 4.23873 3.17809 4.88267V7.63887H0V11.256H3.17809V20H7.08859V11.256H10.0054Z" fill="#446381"/>
</svg>
