<svg width="20" height="20" viewBox="0 0 20 20" fill="none" xmlns="http://www.w3.org/2000/svg">
<path d="M10.0112 4.87657C8.99687 4.87509 8.00485 5.17453 7.1607 5.73701C6.31655 6.29949 5.65822 7.09972 5.26901 8.03646C4.8798 8.9732 4.77719 10.0043 4.97417 10.9994C5.17116 11.9945 5.65888 12.9088 6.37563 13.6266C7.09238 14.3444 8.00595 14.8334 9.00073 15.0319C9.99551 15.2303 11.0268 15.1292 11.9641 14.7414C12.9014 14.3535 13.7026 13.6964 14.2663 12.853C14.83 12.0097 15.1309 11.0181 15.1309 10.0037C15.1319 9.33079 15.0002 8.66424 14.7434 8.04223C14.4865 7.42022 14.1096 6.85494 13.6341 6.37874C13.1586 5.90254 12.5938 5.52476 11.9722 5.267C11.3506 5.00924 10.6842 4.87657 10.0112 4.87657ZM10.0112 13.336C9.35187 13.3375 8.70687 13.1434 8.15789 12.7781C7.60891 12.4128 7.18063 11.8929 6.92727 11.2842C6.67391 10.6754 6.60685 10.0052 6.73458 9.35826C6.8623 8.71137 7.17908 8.11691 7.64481 7.65013C8.11054 7.18335 8.70428 6.86523 9.35089 6.73605C9.99749 6.60686 10.6679 6.67241 11.2772 6.9244C11.8866 7.17639 12.4074 7.6035 12.7739 8.15165C13.1404 8.69981 13.336 9.34437 13.336 10.0037C13.3341 10.8856 12.9834 11.7309 12.3605 12.3552C11.7376 12.9795 10.8931 13.3321 10.0112 13.336ZM16.5358 4.65908C16.5358 4.89542 16.4658 5.12644 16.3345 5.32295C16.2032 5.51945 16.0165 5.67261 15.7982 5.76305C15.5799 5.85349 15.3396 5.87716 15.1078 5.83105C14.876 5.78494 14.6631 5.67114 14.496 5.50402C14.3289 5.33691 14.2151 5.12399 14.169 4.8922C14.1228 4.66041 14.1465 4.42015 14.2369 4.20181C14.3274 3.98346 14.4805 3.79684 14.6771 3.66554C14.8736 3.53424 15.1046 3.46416 15.3409 3.46416C15.4979 3.46383 15.6535 3.49451 15.7986 3.55445C15.9437 3.61438 16.0756 3.70238 16.1866 3.81341C16.2976 3.92443 16.3856 4.05629 16.4456 4.20142C16.5055 4.34654 16.5362 4.50207 16.5358 4.65908ZM19.9306 5.87401C19.9634 4.31954 19.3834 2.81458 18.3157 1.68427C17.1832 0.620092 15.6797 0.0405804 14.126 0.0693707C12.4761 -0.0231236 7.5264 -0.0231236 5.87651 0.0693707C4.32175 0.0391236 2.81694 0.618794 1.68427 1.68427C0.618254 2.8156 0.0384421 4.31987 0.0693707 5.87401C-0.0231236 7.52391 -0.0231236 12.4736 0.0693707 14.1235C0.0358963 15.6788 0.616021 17.1848 1.68427 18.3157C2.81718 19.3792 4.32039 19.9586 5.87401 19.9306C7.52391 20.0231 12.4736 20.0231 14.1235 19.9306C15.678 19.9634 17.1829 19.3834 18.3132 18.3157C19.3774 17.1832 19.9569 15.6797 19.9281 14.126C20.0206 12.4761 20.0206 7.5314 19.9281 5.87651L19.9306 5.87401ZM17.7983 15.9084C17.6286 16.3383 17.3724 16.7287 17.0455 17.0555C16.7187 17.3824 16.3283 17.6386 15.8984 17.8083C13.9625 18.2023 11.9823 18.3343 10.0112 18.2007C8.03722 18.3297 6.0548 18.1943 4.11662 17.7983C3.68672 17.6286 3.29626 17.3724 2.96945 17.0455C2.64264 16.7187 2.38644 16.3283 2.21674 15.8984C1.81529 13.9609 1.67655 11.9782 1.80426 10.0037C1.67532 8.02972 1.81067 6.04731 2.20674 4.10912C2.37644 3.67922 2.63264 3.28877 2.95945 2.96195C3.28627 2.63514 3.67672 2.37894 4.10662 2.20924C6.04767 1.8094 8.03378 1.67319 10.0112 1.80426C11.9853 1.67532 13.9677 1.81067 15.9059 2.20674C16.3358 2.37644 16.7262 2.63264 17.053 2.95945C17.3799 3.28627 17.6361 3.67672 17.8058 4.10662C18.2039 6.04453 18.3392 8.02722 18.2082 10.0013C18.338 11.9798 18.2001 13.9668 17.7983 15.9084Z" fill="#446381"/>
</svg>
