<svg width="20" height="17" viewBox="0 0 20 17" fill="none" xmlns="http://www.w3.org/2000/svg">
<path d="M17.9468 4.0487C17.9597 4.22658 17.9597 4.40447 17.9597 4.58235C17.9703 6.11691 17.6758 7.63827 17.0934 9.05806C16.511 10.4779 15.6523 11.7678 14.5672 12.8529C13.482 13.938 12.1921 14.7967 10.7723 15.3791C9.35254 15.9615 7.83118 16.256 6.29661 16.2454C4.06378 16.2499 1.87721 15.6092 0 14.4002C0.328762 14.4366 0.659374 14.4538 0.990142 14.4516C2.83537 14.4565 4.62844 13.8397 6.08015 12.7007C5.22492 12.6856 4.39572 12.4039 3.70835 11.8948C3.02098 11.3857 2.50975 10.6747 2.24604 9.86096C2.50195 9.90175 2.76058 9.92325 3.01972 9.92526C3.38132 9.92369 3.74131 9.87689 4.0913 9.78595C3.16423 9.59651 2.33123 9.09223 1.73357 8.35864C1.13592 7.62505 0.810413 6.70731 0.812259 5.76109V5.7118C1.3805 6.02912 2.01573 6.20757 2.6661 6.23258C1.79543 5.65239 1.17908 4.76173 0.942882 3.74248C0.706688 2.72322 0.868473 1.65224 1.3952 0.748229C2.4252 2.01499 3.70992 3.05115 5.16606 3.78956C6.6222 4.52797 8.21726 4.95213 9.84784 5.03456C9.78234 4.72591 9.74859 4.41137 9.74711 4.09585C9.74877 3.27384 9.99723 2.47127 10.4603 1.79211C10.9234 1.11295 11.5797 0.588485 12.3443 0.286666C13.1089 -0.0151541 13.9465 -0.0804239 14.7486 0.0993113C15.5508 0.279047 16.2804 0.695504 16.8431 1.29474C17.7612 1.11787 18.6415 0.782845 19.4449 0.304595C19.1391 1.25183 18.4982 2.05499 17.6425 2.56349C18.456 2.46784 19.2506 2.25113 20 1.92054C19.4404 2.74051 18.7462 3.46002 17.9468 4.0487Z" fill="#446381"/>
</svg>
