<svg width="14" height="10" viewBox="0 0 14 10" fill="none" xmlns="http://www.w3.org/2000/svg">
<path fill-rule="evenodd" clip-rule="evenodd" d="M13.1456 0.170063C13.1995 0.223834 13.2422 0.287712 13.2714 0.358039C13.3006 0.428365 13.3156 0.503758 13.3156 0.579898C13.3156 0.656039 13.3006 0.731431 13.2714 0.801758C13.2422 0.872084 13.1995 0.935962 13.1456 0.989734L5.04148 9.09382C4.9877 9.14773 4.92383 9.1905 4.8535 9.21968C4.78317 9.24886 4.70778 9.26388 4.63164 9.26388C4.5555 9.26388 4.48011 9.24886 4.40978 9.21968C4.33945 9.1905 4.27558 9.14773 4.2218 9.09382L0.169759 5.04178C0.0610641 4.93308 0 4.78566 0 4.63194C0 4.47822 0.0610641 4.3308 0.169759 4.22211C0.278454 4.11341 0.425877 4.05235 0.579595 4.05235C0.733313 4.05235 0.880735 4.11341 0.98943 4.22211L4.63164 7.86547L12.3259 0.170063C12.3797 0.116155 12.4435 0.0733857 12.5139 0.0442035C12.5842 0.0150213 12.6596 0 12.7357 0C12.8119 0 12.8873 0.0150213 12.9576 0.0442035C13.0279 0.0733857 13.0918 0.116155 13.1456 0.170063Z" fill="white"/>
</svg>
